<svg width="70" height="70" viewBox="0 0 70 70" fill="none" xmlns="http://www.w3.org/2000/svg">
<circle cx="35" cy="35" r="35" fill="#643EFF"/>
<path d="M20.5319 34.5C20.185 35.7886 20 37.144 20 38.5427C20 47.0795 26.8925 54 35.3947 54C43.897 54 50.7895 47.0795 50.7895 38.5427C50.7895 37.315 50.6469 36.1207 50.3775 34.9756" stroke="white" stroke-width="2" stroke-linecap="round" stroke-linejoin="round"/>
<path d="M35.3947 45.7895C43.897 45.7895 50.7895 38.897 50.7895 30.3947C50.7895 21.8925 43.897 15 35.3947 15C26.8925 15 20 21.8925 20 30.3947C20 38.897 26.8925 45.7895 35.3947 45.7895Z" stroke="white" stroke-width="2" stroke-linecap="round" stroke-linejoin="round"/>
<path d="M35.3948 21.1582V38.6056" stroke="white" stroke-width="2" stroke-linecap="round" stroke-linejoin="round"/>
<path d="M39.6711 24.2373H33.2566C32.4627 24.2373 31.7013 24.5347 31.1399 25.064C30.5786 25.5933 30.2632 26.3111 30.2632 27.0597C30.2632 27.8082 30.5786 28.5261 31.1399 29.0554C31.7013 29.5847 32.4627 29.882 33.2566 29.882H37.5329C38.3268 29.882 39.0882 30.1794 39.6496 30.7087C40.211 31.238 40.5263 31.9559 40.5263 32.7044C40.5263 33.4529 40.211 34.1708 39.6496 34.7001C39.0882 35.2294 38.3268 35.5268 37.5329 35.5268H30.2632" stroke="white" stroke-width="2" stroke-linecap="round" stroke-linejoin="round"/>
</svg>
