<svg xmlns="http://www.w3.org/2000/svg" xmlns:xlink="http://www.w3.org/1999/xlink" width="100" height="100" viewBox="0 0 100 100">
    <defs>
        <path id="a" d="M36.826 2.222l-28.82 16.64A15.73 15.73 0 0 0 .139 32.486v33.282c0 5.62 3 10.813 7.867 13.624l28.82 16.64a15.735 15.735 0 0 0 15.733 0l28.821-16.64a15.733 15.733 0 0 0 7.867-13.624V32.485a15.73 15.73 0 0 0-7.867-13.622L52.56 2.222A15.72 15.72 0 0 0 44.693.115c-2.716 0-5.432.702-7.867 2.107z"/>
    </defs>
    <g fill="none" fill-rule="evenodd">
        <g transform="translate(5 1)">
            <mask id="b" fill="#fff">
                <use xlink:href="#a"/>
            </mask>
            <path fill="#0F186D" d="M56.09 107.15h53.88V41.874H56.09z" mask="url(#b)"/>
            <path fill="#583889" d="M86.478 91.485l-27.07-18.138.13-.357 52.055 5.441.069.37-24.987 12.697z" mask="url(#b)"/>
            <path fill="#583889" d="M111.573 78.626l-52.056-5.442 27.07 18.138z" mask="url(#b)"/>
            <path fill="#582C7D" d="M47.018 106.936l-.178-.264 12.494-33.555.362-.014 15.617 34.464-.185.276z" mask="url(#b)"/>
            <path fill="#582C7D" d="M59.518 73.184l-12.494 33.557 28.11.906z" mask="url(#b)"/>
            <path fill="#583889" d="M74.956 107.729L59.338 73.266l.289-.243 27.068 18.138.051.275-11.45 16.324z" mask="url(#b)"/>
            <path fill="#583889" d="M59.518 73.184l15.616 34.463 11.452-16.324z" mask="url(#b)"/>
            <path fill="#5C518F" d="M59.498 73.38l-.16-.273 12.494-29.021.309-.07 39.56 34.463-.147.342z" mask="url(#b)"/>
            <path fill="#5C518F" d="M72.011 44.162L59.518 73.185l52.056 5.441z" mask="url(#b)"/>
            <path fill="#719560" d="M71.882 44.31l.19-.333 43.728 14.51.129.226-4.165 19.952-.32.108z" mask="url(#b)"/>
            <path fill="#719560" d="M72.011 44.162l39.563 34.464 4.164-19.952z" mask="url(#b)"/>
            <path fill="#719560" d="M71.949 44.349l.007-.374 55.178-16.325.24.256-11.453 30.835-.244.117z" mask="url(#b)"/>
            <path fill="#719560" d="M127.19 27.838L72.012 44.162l43.727 14.512z" mask="url(#b)"/>
            <path fill="#583889" d="M24.06 99.672l-.058-.343 35.4-26.3.3.224-12.495 33.556-.243.117z" mask="url(#b)"/>
            <path fill="#583889" d="M59.518 73.184L24.12 99.485l22.904 7.256z" mask="url(#b)"/>
            <path fill="#5C518F" d="M23.936 99.555L17.69 83.231l.138-.26 41.644-9.976.162.347-35.398 26.3z" mask="url(#b)"/>
            <path fill="#5C518F" d="M17.872 83.16l6.247 16.325 35.4-26.3z" mask="url(#b)"/>
            <path fill="#657079" d="M48.935 54.232l.094-.272 22.904-9.977.257.257-12.493 29.022-.352.017z" mask="url(#b)"/>
            <path fill="#657079" d="M72.011 44.162L49.106 54.14l10.412 19.046z" mask="url(#b)"/>
            <path fill="#626681" d="M17.739 83.018l31.233-29.023.305.05L59.69 73.091l-.125.284-41.646 9.976z" mask="url(#b)"/>
            <path fill="#626681" d="M49.106 54.139L17.873 83.16l41.645-9.976z" mask="url(#b)"/>
            <path fill="#77A853" d="M47.996 35.276l-.049-.34 22.905-17.23.314.148 1.04 26.301-.265.19z" mask="url(#b)"/>
            <path fill="#77A853" d="M70.97 17.862L48.064 35.093l23.945 9.07z" mask="url(#b)"/>
            <path fill="#6A816E" d="M48.91 54.15l-1.04-19.046.264-.194 23.947 9.07.009.362-22.906 9.977z" mask="url(#b)"/>
            <path fill="#6A816E" d="M72.011 44.162l-23.946-9.068 1.041 19.045z" mask="url(#b)"/>
            <path fill="#6A816E" d="M17.679 83.137l4.163-34.463.233-.169 27.07 5.443.094.334-31.233 29.022z" mask="url(#b)"/>
            <path fill="#6A816E" d="M49.106 54.139l-27.069-5.442-4.164 34.464z" mask="url(#b)"/>
            <path fill="#719560" d="M71.816 44.17l-1.041-26.3.229-.2 56.22 9.976.021.38L72.067 44.35z" mask="url(#b)"/>
            <path fill="#719560" d="M70.97 17.862l1.04 26.3 55.18-16.324z" mask="url(#b)"/>
            <path fill="#B7CD3E" d="M70.935 18.054l-.127-.303L83.302-.39l.267-.053 43.727 28.115-.14.357z" mask="url(#b)"/>
            <path fill="#B7CD3E" d="M83.463-.277L70.97 17.861l56.221 9.977z" mask="url(#b)"/>
            <path fill="#605C87" d="M-16.532 89.7l.012-.382 34.358-6.348.217.121 6.247 16.326-.23.26z" mask="url(#b)"/>
            <path fill="#605C87" d="M-16.485 89.51l40.604 9.976-6.247-16.326z" mask="url(#b)"/>
            <path fill="#719560" d="M21.999 48.89l-.053-.366L47.974 34.92l.286.162 1.042 19.046-.235.203z" mask="url(#b)"/>
            <path fill="#719560" d="M48.065 35.093L22.037 48.697l27.07 5.441z" mask="url(#b)"/>
            <path fill="#77A853" d="M21.843 48.674l3.123-25.394.284-.15 22.904 11.79.002.347L22.128 48.87z" mask="url(#b)"/>
            <path fill="#77A853" d="M25.16 23.303l-3.124 25.394 26.029-13.604z" mask="url(#b)"/>
            <path fill="#7FB947" d="M25.07 23.477l.067-.368 45.81-5.442.14.351L48.184 35.25l-.207.017z" mask="url(#b)"/>
            <path fill="#7FB947" d="M70.97 17.862l-45.81 5.44 22.905 11.791z" mask="url(#b)"/>
            <path fill="#687775" d="M-16.667 89.438l10.412-26.302.307-.077 23.945 19.952-.09.342-34.356 6.35z" mask="url(#b)"/>
            <path fill="#687775" d="M-6.074 63.208l-10.41 26.301 34.356-6.348z" mask="url(#b)"/>
            <path fill="#719560" d="M-6.198 63.359l.035-.324 28.11-14.51.284.196-4.165 34.464-.318.126z" mask="url(#b)"/>
            <path fill="#719560" d="M22.037 48.697l-28.11 14.51 23.945 19.954z" mask="url(#b)"/>
            <path fill="#77A853" d="M-6.268 63.195l2.081-29.929.295-.155 26.029 15.42-.01.34-28.11 14.511z" mask="url(#b)"/>
            <path fill="#77A853" d="M-3.991 33.28l-2.083 29.928 28.111-14.51z" mask="url(#b)"/>
            <path fill="#AACA40" d="M25.028 23.16L58.344-7.677l.308.058 12.493 25.394-.152.28-45.81 5.442z" mask="url(#b)"/>
            <path fill="#AACA40" d="M58.476-7.533L25.16 23.304l45.81-5.443z" mask="url(#b)"/>
            <path fill="#C6D23C" d="M70.794 17.948L58.301-7.446l.23-.274L83.517-.465l.107.298-12.494 18.14z" mask="url(#b)"/>
            <path fill="#C6D23C" d="M83.463-.277L58.476-7.533 70.97 17.861z" mask="url(#b)"/>
            <path fill="#7FB947" d="M-4.091 33.447l.036-.352 29.151-9.977.258.209-3.122 25.395-.295.144z" mask="url(#b)"/>
            <path fill="#7FB947" d="M25.16 23.303L-3.991 33.28l26.027 15.417z" mask="url(#b)"/>
            <path fill="#AACA40" d="M-4.187 33.28V6.071l.295-.17L25.26 23.135l-.035.354-29.152 9.976z" mask="url(#b)"/>
            <path fill="#AACA40" d="M-3.991 6.071V33.28l29.15-9.975z" mask="url(#b)"/>
            <path fill="#C9D63B" d="M24.966 23.322l-3.124-32.65.204-.214 36.44 1.815.123.338-33.316 30.835z" mask="url(#b)"/>
            <path fill="#C9D63B" d="M58.476-7.533l-36.44-1.813 3.124 32.65z" mask="url(#b)"/>
            <path fill="#D1D739" d="M-4.091 6.24v-.336L21.937-9.515l.295.15 3.123 32.65-.294.186z" mask="url(#b)"/>
            <path fill="#D1D739" d="M22.037-9.347L-3.992 6.071 25.16 23.303z" mask="url(#b)"/>
        </g>
        <g fill="#FFF">
            <path d="M50.5 59.571c-9.5 0-17.2-7.674-17.2-17.142S41 25.286 50.5 25.286s17.2 7.675 17.2 17.143S60 59.57 50.5 59.57m0 8.572c-7.62 0-14.073-4.944-16.331-11.786 3.943 4.588 9.794 7.5 16.331 7.5 6.537 0 12.388-2.912 16.331-7.5-2.258 6.842-8.71 11.786-16.331 11.786m0 8.571c-7.62 0-14.073-4.945-16.331-11.785 3.943 4.588 9.794 7.5 16.331 7.5 6.537 0 12.388-2.912 16.331-7.5-2.258 6.84-8.71 11.785-16.331 11.785m21.07-30A21.46 21.46 0 0 0 72 42.43C72 30.594 62.374 21 50.5 21S29 30.594 29 42.429c0 1.467.149 2.9.43 4.285A21.46 21.46 0 0 0 29 51c0 1.467.149 2.9.43 4.286A21.46 21.46 0 0 0 29 59.57C29 71.406 38.626 81 50.5 81S72 71.406 72 59.571c0-1.467-.149-2.9-.43-4.285A21.46 21.46 0 0 0 72 51c0-1.467-.149-2.9-.43-4.286"/>
            <path d="M54.8 44.571c1.188 0 2.15.96 2.15 2.143a2.146 2.146 0 0 1-2.15 2.143h-2.15v-4.286h2.15zm-6.45-4.285H46.2c-1.188 0-2.15-.96-2.15-2.143 0-1.184.962-2.143 2.15-2.143h2.15v4.286zM59.1 36c1.188 0 2.15-.96 2.15-2.143a2.146 2.146 0 0 0-2.15-2.143h-6.45v-2.143a2.146 2.146 0 0 0-2.15-2.142c-1.188 0-2.15.959-2.15 2.142v2.143H46.2c-3.562 0-6.45 2.879-6.45 6.429 0 3.55 2.888 6.428 6.45 6.428h2.15v4.286H41.9c-1.188 0-2.15.96-2.15 2.143 0 1.184.962 2.143 2.15 2.143h6.45v2.143c0 1.183.962 2.143 2.15 2.143s2.15-.96 2.15-2.143v-2.143h2.15c3.562 0 6.45-2.878 6.45-6.429 0-3.55-2.888-6.428-6.45-6.428h-2.15V36h6.45z"/>
        </g>
    </g>
</svg>
