<svg xmlns="http://www.w3.org/2000/svg" viewBox="0 0 100 100" width="100" height="100">

<defs>
	<linearGradient x1="24.5820312%" y1="7.52734375%" x2="66.4335938%" y2="100%" id="ka-gradient-green">
		<stop stop-color="#f2dc34" offset="0%"></stop>
		<stop stop-color="#7eba46" offset="100%"></stop>
	</linearGradient>
	<linearGradient x1="24.5820312%" y1="7.52734375%" x2="66.4335938%" y2="100%" id="ka-gradient-purple">
		<stop stop-color="#582b7b" offset="0%"></stop>
		<stop stop-color="#009AD7" offset="100%"></stop>
	</linearGradient>
</defs>
 
<g transform="translate(2.4, 7)" fill="url(#ka-gradient-green)" stroke="url(#ka-gradient-green)" stroke-width="3">
	<path d="M64.2319142,0 L30.7673781,0 C25.7538222,0 21.1200812,2.67484601 18.6133033,7.01802871 L1.88056046,35.9988506 C-0.627167019,40.3410837 -0.627167019,45.6917253 1.88056046,50.0339584 L18.6133033,79.0157298 C21.1200812,83.357963 25.7538222,86.0318595 30.7673781,86.0318595 L64.2319142,86.0318595 C69.2464196,86.0318595 73.8792111,83.357963 76.3869386,79.0157298 L93.1196814,50.0339584 C95.6264593,45.6917253 95.6264593,40.3410837 93.1196814,35.9988506 L76.3869386,7.01802871 C73.8792111,2.67484601 69.2464196,0 64.2319142,0"></path>
</g>

<g fill="#FFF">
            <path d="M50.5 59.571c-9.5 0-17.2-7.674-17.2-17.142S41 25.286 50.5 25.286s17.2 7.675 17.2 17.143S60 59.57 50.5 59.57m0 8.572c-7.62 0-14.073-4.944-16.331-11.786 3.943 4.588 9.794 7.5 16.331 7.5 6.537 0 12.388-2.912 16.331-7.5-2.258 6.842-8.71 11.786-16.331 11.786m0 8.571c-7.62 0-14.073-4.945-16.331-11.785 3.943 4.588 9.794 7.5 16.331 7.5 6.537 0 12.388-2.912 16.331-7.5-2.258 6.84-8.71 11.785-16.331 11.785m21.07-30A21.46 21.46 0 0 0 72 42.43C72 30.594 62.374 21 50.5 21S29 30.594 29 42.429c0 1.467.149 2.9.43 4.285A21.46 21.46 0 0 0 29 51c0 1.467.149 2.9.43 4.286A21.46 21.46 0 0 0 29 59.57C29 71.406 38.626 81 50.5 81S72 71.406 72 59.571c0-1.467-.149-2.9-.43-4.285A21.46 21.46 0 0 0 72 51c0-1.467-.149-2.9-.43-4.286"/>
            <path d="M54.8 44.571c1.188 0 2.15.96 2.15 2.143a2.146 2.146 0 0 1-2.15 2.143h-2.15v-4.286h2.15zm-6.45-4.285H46.2c-1.188 0-2.15-.96-2.15-2.143 0-1.184.962-2.143 2.15-2.143h2.15v4.286zM59.1 36c1.188 0 2.15-.96 2.15-2.143a2.146 2.146 0 0 0-2.15-2.143h-6.45v-2.143a2.146 2.146 0 0 0-2.15-2.142c-1.188 0-2.15.959-2.15 2.142v2.143H46.2c-3.562 0-6.45 2.879-6.45 6.429 0 3.55 2.888 6.428 6.45 6.428h2.15v4.286H41.9c-1.188 0-2.15.96-2.15 2.143 0 1.184.962 2.143 2.15 2.143h6.45v2.143c0 1.183.962 2.143 2.15 2.143s2.15-.96 2.15-2.143v-2.143h2.15c3.562 0 6.45-2.878 6.45-6.429 0-3.55-2.888-6.428-6.45-6.428h-2.15V36h6.45z"/>
        </g>

</svg>